<mxfile host="65bd71144e">
    <diagram id="nQGF-Ud8uuBfEzQcGW14" name="Page-1">
        <mxGraphModel dx="1008" dy="720" grid="1" gridSize="10" guides="1" tooltips="1" connect="1" arrows="1" fold="1" page="1" pageScale="1" pageWidth="850" pageHeight="1100" math="0" shadow="0">
            <root>
                <mxCell id="0"/>
                <mxCell id="1" parent="0"/>
                <mxCell id="2" value="" style="rounded=0;whiteSpace=wrap;html=1;" vertex="1" parent="1">
                    <mxGeometry x="12" y="10" width="800" height="1050" as="geometry"/>
                </mxCell>
                <mxCell id="56" value="" style="ellipse;whiteSpace=wrap;html=1;fontSize=12;" vertex="1" parent="1">
                    <mxGeometry x="140" y="380" width="570" height="210" as="geometry"/>
                </mxCell>
                <mxCell id="55" value="" style="ellipse;whiteSpace=wrap;html=1;fontSize=12;" vertex="1" parent="1">
                    <mxGeometry x="140" y="20" width="450" height="180" as="geometry"/>
                </mxCell>
                <mxCell id="6" value="Frontend&lt;br&gt;React&lt;br&gt;Port:3000" style="rounded=1;whiteSpace=wrap;html=1;" vertex="1" parent="1">
                    <mxGeometry x="365" y="70" width="120" height="60" as="geometry"/>
                </mxCell>
                <mxCell id="9" value="&lt;p style=&quot;line-height: 120%; font-size: 19px;&quot;&gt;Dockerized System&lt;/p&gt;" style="text;html=1;strokeColor=none;fillColor=none;align=center;verticalAlign=middle;whiteSpace=wrap;rounded=0;" vertex="1" parent="1">
                    <mxGeometry x="520" y="20" width="280" height="30" as="geometry"/>
                </mxCell>
                <mxCell id="32" value="Backend&lt;br&gt;Java, Springboot, Maven,Swagger&lt;br&gt;Port:8090" style="rounded=0;whiteSpace=wrap;html=1;fontSize=12;" vertex="1" parent="1">
                    <mxGeometry x="270" y="410" width="153" height="120" as="geometry"/>
                </mxCell>
                <mxCell id="41" value="" style="sketch=0;aspect=fixed;html=1;points=[];align=center;image;fontSize=12;image=img/lib/mscae/Database_General.svg;" vertex="1" parent="1">
                    <mxGeometry x="360" y="830" width="114" height="150" as="geometry"/>
                </mxCell>
                <mxCell id="42" value="Database&lt;br&gt;Mysql&lt;br&gt;Port:3306" style="rounded=1;whiteSpace=wrap;html=1;fontSize=12;" vertex="1" parent="1">
                    <mxGeometry x="360" y="980" width="120" height="60" as="geometry"/>
                </mxCell>
                <mxCell id="43" value="" style="sketch=0;aspect=fixed;html=1;points=[];align=center;image;fontSize=12;image=img/lib/mscae/Docker.svg;" vertex="1" parent="1">
                    <mxGeometry x="451.85" y="415" width="134.15" height="110" as="geometry"/>
                </mxCell>
                <mxCell id="45" value="" style="verticalLabelPosition=bottom;html=1;verticalAlign=top;align=center;strokeColor=none;fillColor=#00BEF2;shape=mxgraph.azure.website_generic;pointerEvents=1;fontSize=12;" vertex="1" parent="1">
                    <mxGeometry x="200" y="70" width="140" height="110" as="geometry"/>
                </mxCell>
                <mxCell id="51" value="Controller, service repository" style="rounded=1;whiteSpace=wrap;html=1;fontSize=12;arcSize=21;" vertex="1" parent="1">
                    <mxGeometry x="347" y="610" width="140" height="184" as="geometry"/>
                </mxCell>
                <mxCell id="53" value="" style="sketch=0;html=1;aspect=fixed;strokeColor=none;shadow=0;align=center;verticalAlign=top;fillColor=#3B8DF1;shape=mxgraph.gcp2.replication_controller_3;fontSize=12;" vertex="1" parent="1">
                    <mxGeometry x="367" y="720" width="100" height="66" as="geometry"/>
                </mxCell>
                <mxCell id="54" value="Controller, exceptions" style="rounded=1;whiteSpace=wrap;html=1;fontSize=12;" vertex="1" parent="1">
                    <mxGeometry x="200" y="230" width="405" height="125" as="geometry"/>
                </mxCell>
                <mxCell id="50" value="" style="aspect=fixed;html=1;points=[];align=center;image;fontSize=12;image=img/lib/azure2/general/Globe_Error.svg;" vertex="1" parent="1">
                    <mxGeometry x="530" y="290" width="56.00000000000001" height="66" as="geometry"/>
                </mxCell>
                <mxCell id="46" value="" style="shadow=0;dashed=0;html=1;strokeColor=none;fillColor=#EF8F21;labelPosition=center;verticalLabelPosition=bottom;verticalAlign=top;align=center;outlineConnect=0;shape=mxgraph.veeam.2d.restful_apis;fontSize=12;" vertex="1" parent="1">
                    <mxGeometry x="225.2" y="290" width="44.8" height="44.8" as="geometry"/>
                </mxCell>
                <mxCell id="58" value="" style="endArrow=none;dashed=1;html=1;fontSize=12;exitX=1;exitY=0.5;exitDx=0;exitDy=0;" edge="1" parent="1" source="54" target="55">
                    <mxGeometry width="50" height="50" relative="1" as="geometry">
                        <mxPoint x="650" y="190" as="sourcePoint"/>
                        <mxPoint x="700" y="140" as="targetPoint"/>
                        <Array as="points">
                            <mxPoint x="670" y="200"/>
                        </Array>
                    </mxGeometry>
                </mxCell>
                <mxCell id="59" value="" style="endArrow=none;dashed=1;html=1;fontSize=12;exitX=1;exitY=0;exitDx=0;exitDy=0;" edge="1" parent="1" source="56" target="54">
                    <mxGeometry width="50" height="50" relative="1" as="geometry">
                        <mxPoint x="660" y="420" as="sourcePoint"/>
                        <mxPoint x="710" y="370" as="targetPoint"/>
                    </mxGeometry>
                </mxCell>
                <mxCell id="60" value="" style="endArrow=none;dashed=1;html=1;fontSize=12;entryX=1;entryY=1;entryDx=0;entryDy=0;exitX=1;exitY=0.5;exitDx=0;exitDy=0;" edge="1" parent="1" source="51" target="56">
                    <mxGeometry width="50" height="50" relative="1" as="geometry">
                        <mxPoint x="530" y="670" as="sourcePoint"/>
                        <mxPoint x="580" y="620" as="targetPoint"/>
                    </mxGeometry>
                </mxCell>
                <mxCell id="61" value="" style="endArrow=none;dashed=1;html=1;fontSize=12;entryX=0.75;entryY=1;entryDx=0;entryDy=0;" edge="1" parent="1" source="41" target="51">
                    <mxGeometry width="50" height="50" relative="1" as="geometry">
                        <mxPoint x="570" y="870" as="sourcePoint"/>
                        <mxPoint x="620" y="820" as="targetPoint"/>
                    </mxGeometry>
                </mxCell>
            </root>
        </mxGraphModel>
    </diagram>
</mxfile>